<svg xmlns="http://www.w3.org/2000/svg" viewBox="0 0 1335.18 768"><g id="Layer_2" data-name="Layer 2"><g id="Layer_1-2" data-name="Layer 1"><path d="M589,2.87C552.55,2.87,512.38,2,469.06,0V19.22c26.11,1.15,46.19,7.75,60,19.22s20.66,30.13,20.66,55.66c0,28.69-8.89,67.7-27,117.05L430.33,461l11.48,29.26L573.49,133.4c12.34-33.28,26.11-59.1,41.31-77.74,15.5-18.65,31-30.7,47.05-36.44V0C642.63,2,618.25,2.87,589,2.87Z"/><path d="M416.56,558.57l-28.11,75.74-4.59,12.62L340,768l-35-86.93L286,634.6,60.25,80.62C51.93,59.38,42.46,44.18,31.56,34.43,20.66,25,10,19.8,0,19.22V0C38.44,2,86.93,2.87,145.74,2.87c66,0,114.47-.86,145.74-2.87V19.22c-24.1,1.15-41.6,4-51.64,8.61-10.33,4.59-15.49,13.48-15.49,27,0,10.91,4,25.83,11.47,45.05l111.6,283.44,57.38,146Z"/><path d="M1335.18,706.28c-17.21,22-35.57,37.86-55.37,47.41-20.08,9.54-43.89,14.31-72,14.31-37.29,0-66.56-8.59-87.79-26.09-21.51-17.18-35.28-46.76-41.88-88.76l-17.21-106.26q-12.5-77.79-30.13-114.53c-12-24.5-31.56-36.59-59.1-36.59H909.44V640.42c0,27.05,1.72,46.45,5.16,58.54s10,20.36,19.8,24.5c9.46,4.14,25.24,7,47.05,8.59v21.32c-34.72-2.23-82.91-3.5-144.88-3.5-68.57,0-119.06,1.27-151.76,3.5V732.05q31.83-2.38,46.47-8.59c10-4.14,16.64-12.41,20.37-24.5,3.44-12.09,5.16-31.49,5.16-58.54V112.62q0-40.08-5.16-58.22C747.92,42.31,741.32,34,731.28,29.91q-14.62-6.69-46.47-8.59V0c32.7,2.23,81.18,3.18,146,3.18l106.44-1c9.18-.32,19.79-1,31.27-1,4.3-.32,8.6-.32,12.91-.32,88.07,0,154.34,16.23,198.81,48s66.85,77.63,66.85,137.12c0,50.59-5.31,85.77-23.64,133-7.85,20.23-21.36,36.72-40.12,47.74-26.16,15.39-55,16.94-83.45,24.55,16.6,3.38,32.83,4.19,48.41,11.95,24.59,12.24,41.87,36,51.87,61.63,13.78,35.22,16.62,74.57,24.07,111.48,4.36,21.62,9.18,43.21,13.1,64.93,5.17,28.63,11.19,48.36,17.79,59.81,6.89,11.13,16.35,16.86,28.4,16.86a41.34,41.34,0,0,0,19.51-6.36q8.17-5.25,18.93-18.13Z"/></g></g></svg>